Radio-Canada-Bold-slant-14.ufo
<glyph name="parenright" format="1">
  <advance width="300"/>
  <unicode hex="0029"/>
  <outline>
    <contour>
      <point x="-98.61896055442024" y="-195.0" type="curve"/>
      <point x="-41.82796872785426" y="-256.0" type="line"/>
      <point x="128.5766076758774" y="-114.0"/>
      <point x="245.4717761194136" y="42.0"/>
      <point x="301.81990476197245" y="268.0" type="curve" smooth="yes"/>
      <point x="358.1680334045313" y="494.0"/>
      <point x="318.8138738452243" y="649.0"/>
      <point x="219.21845024895595" y="791.0" type="curve"/>
      <point x="132.00944207552192" y="730.0" type="line"/>
      <point x="195.10083368884935" y="594.0"/>
      <point x="207.94558528796085" y="453.0"/>
      <point x="161.81990476197242" y="268.0" type="curve" smooth="yes"/>
      <point x="115.694224235984" y="83.0"/>
      <point x="32.28964783225234" y="-59.0"/>
    </contour>
  </outline>
</glyph>
<glyph name="six" format="1">
  <advance width="660"/>
  <unicode hex="0036"/>
  <outline>
    <contour>
      <point x="144.7849609098178" y="320.0" type="curve" smooth="yes"/>
      <point x="92.42608031274987" y="110.0"/>
      <point x="178.00806396588183" y="-12.0"/>
      <point x="335.00806396588183" y="-12.0" type="curve"/>
      <point x="489.00806396588183" y="-12.0"/>
      <point x="614.6915362473567" y="87.0"/>
      <point x="649.0988006397157" y="225.0" type="curve" smooth="yes"/>
      <point x="682.7580810235451" y="360.0"/>
      <point x="612.9482732765881" y="449.0"/>
      <point x="488.9482732765881" y="449.0" type="curve" smooth="yes"/>
      <point x="420.9482732765881" y="449.0"/>
      <point x="349.47112117992" y="415.0"/>
      <point x="304.7553930349178" y="364.0" type="curve"/>
      <point x="281.3185607676588" y="270.0" type="line"/>
      <point x="321.54907285011103" y="299.0"/>
      <point x="378.03160092403374" y="325.0"/>
      <point x="420.03160092403374" y="325.0" type="curve"/>
      <point x="479.03160092403374" y="325.0"/>
      <point x="510.0584808103065" y="285.0"/>
      <point x="494.35081663118615" y="222.0" type="curve" smooth="yes"/>
      <point x="480.6377764748112" y="167.0"/>
      <point x="429.66734434971124" y="123.0"/>
      <point x="373.66734434971124" y="123.0" type="curve"/>
      <point x="308.66734434971124" y="123.0"/>
      <point x="268.6270245203021" y="183.0"/>
      <point x="302.7849609098178" y="320.0" type="curve" smooth="yes"/>
      <point x="347.41467341874716" y="499.0"/>
      <point x="450.8676336177698" y="569.0"/>
      <point x="530.8676336177698" y="569.0" type="curve"/>
      <point x="566.8676336177698" y="569.0"/>
      <point x="598.1250255864949" y="558.0"/>
      <point x="625.8945135040426" y="529.0" type="curve"/>
      <point x="725.811185856597" y="653.0" type="line"/>
      <point x="684.2883379532651" y="687.0"/>
      <point x="626.0282579959129" y="702.0"/>
      <point x="561.0282579959129" y="702.0" type="curve" smooth="yes"/>
      <point x="392.0282579959129" y="702.0"/>
      <point x="207.86494562914254" y="573.0"/>
    </contour>
  </outline>
</glyph>
<glyph name="equal" format="1">
  <advance width="660"/>
  <unicode hex="003D"/>
  <outline>
    <contour>
      <point x="116.4341442786317" y="98.0" type="line"/>
      <point x="592.4341442786317" y="98.0" type="line"/>
      <point x="625.8440966596179" y="232.0" type="line"/>
      <point x="149.84409665961792" y="232.0" type="line"/>
    </contour>
    <contour>
      <point x="178.7661449894269" y="348.0" type="line"/>
      <point x="654.766144989427" y="348.0" type="line"/>
      <point x="688.1760973704131" y="482.0" type="line"/>
      <point x="212.17609737041312" y="482.0" type="line"/>
    </contour>
  </outline>
</glyph>
<glyph name="at" format="1">
  <advance width="1006"/>
  <unicode hex="0040"/>
  <outline>
    <contour>
      <point x="108.57864072501108" y="255.0" type="curve"/>
      <point x="42.506719971568195" y="-10.0"/>
      <point x="165.8823834398934" y="-197.0"/>
      <point x="463.8823834398934" y="-197.0" type="curve"/>
      <point x="560.8823834398934" y="-197.0"/>
      <point x="638.6249914711684" y="-186.0"/>
      <point x="708.611551528032" y="-166.0" type="curve"/>
      <point x="697.286959843625" y="-55.0" type="line"/>
      <point x="641.048383795291" y="-72.0"/>
      <point x="562.3084637526433" y="-87.0"/>
      <point x="490.30846375264326" y="-87.0" type="curve"/>
      <point x="275.30846375264326" y="-87.0"/>
      <point x="182.21707213931586" y="49.0"/>
      <point x="233.3293127221679" y="254.0" type="curve"/>
      <point x="282.1976012794313" y="450.0"/>
      <point x="438.60217768316295" y="592.0"/>
      <point x="667.602177683163" y="592.0" type="curve"/>
      <point x="879.602177683163" y="592.0"/>
      <point x="949.4442412936472" y="455.0"/>
      <point x="903.3185607676588" y="270.0" type="curve"/>
      <point x="870.6565923952021" y="139.0"/>
      <point x="825.4341442786317" y="98.0"/>
      <point x="787.4341442786317" y="98.0" type="curve"/>
      <point x="755.4341442786317" y="98.0"/>
      <point x="745.1686883440249" y="121.0"/>
      <point x="756.1391204691248" y="165.0" type="curve"/>
      <point x="807.2513610519768" y="370.0" type="line" smooth="yes"/>
      <point x="814.2325451315859" y="398.0"/>
      <point x="820.9697771856064" y="417.0"/>
      <point x="833.2002892680586" y="446.0" type="curve"/>
      <point x="853.4173614073744" y="495.0" type="line"/>
      <point x="707.4173614073744" y="495.0" type="line"/>
      <point x="665.7312011372723" y="400.0" type="line"/>
      <point x="655.5060650320746" y="363.0" type="line"/>
      <point x="602.8978564321635" y="152.0" type="line"/>
      <point x="597.6807842928476" y="103.0" type="line"/>
      <point x="601.9811840796091" y="28.0"/>
      <point x="647.0080639658818" y="-12.0"/>
      <point x="737.0080639658818" y="-12.0" type="curve"/>
      <point x="890.0080639658818" y="-12.0"/>
      <point x="986.6807842928476" y="103.0"/>
      <point x="1028.3185607676587" y="270.0" type="curve"/>
      <point x="1095.8864495381608" y="541.0"/>
      <point x="965.0282579959129" y="702.0"/>
      <point x="691.0282579959129" y="702.0" type="curve"/>
      <point x="413.0282579959129" y="702.0"/>
      <point x="175.39854548698352" y="523.0"/>
    </contour>
    <contour>
      <point x="312.5759527363838" y="259.0" type="curve" smooth="yes"/>
      <point x="274.17944029853396" y="105.0"/>
      <point x="331.9946240227454" y="8.0"/>
      <point x="426.9946240227454" y="8.0" type="curve" smooth="yes"/>
      <point x="492.9946240227454" y="8.0"/>
      <point x="553.7184161336295" y="47.0"/>
      <point x="605.6807842928476" y="103.0" type="curve"/>
      <point x="629.616272565793" y="199.0" type="line"/>
      <point x="593.1391204691248" y="165.0"/>
      <point x="547.903232409418" y="144.0"/>
      <point x="510.903232409418" y="144.0" type="curve" smooth="yes"/>
      <point x="464.903232409418" y="144.0"/>
      <point x="443.8763525231453" y="184.0"/>
      <point x="464.57057675912927" y="267.0" type="curve" smooth="yes"/>
      <point x="484.01816098089733" y="345.0"/>
      <point x="533.9885931059973" y="389.0"/>
      <point x="585.9885931059973" y="389.0" type="curve" smooth="yes"/>
      <point x="632.9885931059973" y="389.0"/>
      <point x="652.5141289979564" y="351.0"/>
      <point x="631.8199047619725" y="268.0" type="curve"/>
      <point x="685.0665447761884" y="273.0" type="line"/>
      <point x="722.4657452026654" y="423.0"/>
      <point x="673.4092974414926" y="507.0"/>
      <point x="570.4092974414926" y="507.0" type="curve"/>
      <point x="460.40929744149264" y="507.0"/>
      <point x="352.7177611941359" y="420.0"/>
    </contour>
  </outline>
</glyph>
<glyph name="A" format="1">
  <advance width="656"/>
  <unicode hex="0041"/>
  <outline>
    <contour>
      <point x="0.0" y="0.0" type="line"/>
      <point x="170.0" y="0.0" type="line"/>
      <point x="476.14115351825853" y="534.0" type="line"/>
      <point x="507.03632196179467" y="690.0" type="line"/>
      <point x="433.03632196179467" y="690.0" type="line"/>
    </contour>
    <contour>
      <point x="202.90860838667257" y="136.0" type="line"/>
      <point x="528.9086083866725" y="136.0" type="line"/>
      <point x="560.5732647477565" y="263.0" type="line"/>
      <point x="234.57326474775653" y="263.0" type="line"/>
    </contour>
    <contour>
      <point x="442.14115351825853" y="534.0" type="line"/>
      <point x="482.0" y="0.0" type="line"/>
      <point x="656.0" y="0.0" type="line"/>
      <point x="567.0363219617947" y="690.0" type="line"/>
      <point x="485.03632196179467" y="690.0" type="line"/>
    </contour>
    <contour>
      <point x="499.03632196179467" y="690.0" type="move" name="top"/>
    </contour>
    <contour>
      <point x="328.0" y="0.0" type="move" name="bottom"/>
    </contour>
  </outline>
</glyph>
<glyph name="B" format="1">
  <advance width="654"/>
  <unicode hex="0042"/>
  <outline>
    <contour>
      <point x="85.0" y="0.0" type="line"/>
      <point x="245.0" y="0.0" type="line"/>
      <point x="417.03632196179467" y="690.0" type="line"/>
      <point x="257.03632196179467" y="690.0" type="line"/>
    </contour>
    <contour>
      <point x="159.0" y="0.0" type="line"/>
      <point x="367.0" y="0.0" type="line" smooth="yes"/>
      <point x="500.71595330739297" y="0.0"/>
      <point x="621.6269099684481" y="70.69767441860465"/>
      <point x="651.3723205402043" y="190.0" type="curve" smooth="yes"/>
      <point x="681.2312377291815" y="309.75757575757564"/>
      <point x="604.7392651031541" y="388.0"/>
      <point x="463.73926510315414" y="388.0" type="curve" smooth="yes"/>
      <point x="255.7392651031541" y="388.0" type="line"/>
      <point x="230.80646481883605" y="288.0" type="line"/>
      <point x="423.80646481883605" y="288.0" type="line" smooth="yes"/>
      <point x="476.80646481883605" y="288.0"/>
      <point x="506.32393674491334" y="262.0"/>
      <point x="493.6082085999111" y="211.0" type="curve" smooth="yes"/>
      <point x="480.89248045490893" y="160.0"/>
      <point x="438.4099523809862" y="134.0"/>
      <point x="385.4099523809862" y="134.0" type="curve" smooth="yes"/>
      <point x="192.40995238098623" y="134.0" type="line"/>
    </contour>
    <contour>
      <point x="240.77958493256327" y="328.0" type="line"/>
      <point x="423.77958493256324" y="328.0" type="line" smooth="yes"/>
      <point x="554.7795849325632" y="328.0"/>
      <point x="670.9885931059973" y="389.0"/>
      <point x="699.9106414358063" y="505.0" type="curve" smooth="yes"/>
      <point x="728.583361762772" y="620.0"/>
      <point x="644.9312635960359" y="690.0"/>
      <point x="514.0363219617947" y="690.0" type="curve" smooth="yes"/>
      <point x="331.03632196179467" y="690.0" type="line"/>
      <point x="297.6263695808085" y="556.0" type="line"/>
      <point x="470.6263695808085" y="556.0" type="line" smooth="yes"/>
      <point x="520.6263695808085" y="556.0"/>
      <point x="548.393169509729" y="531.0"/>
      <point x="536.6747533760995" y="484.0" type="curve" smooth="yes"/>
      <point x="524.95633724247" y="437.0"/>
      <point x="484.7231371713905" y="412.0"/>
      <point x="434.7231371713905" y="412.0" type="curve" smooth="yes"/>
      <point x="261.7231371713905" y="412.0" type="line"/>
    </contour>
  </outline>
</glyph>
<glyph name="C" format="1">
  <advance width="653"/>
  <unicode hex="0043"/>
  <outline>
    <contour>
      <point x="131.01816098089733" y="345.0" type="curve" smooth="yes"/>
      <point x="75.41801634686804" y="122.0"/>
      <point x="201.00806396588183" y="-12.0"/>
      <point x="386.00806396588183" y="-12.0" type="curve" smooth="yes"/>
      <point x="477.00806396588183" y="-12.0"/>
      <point x="553.7399200426477" y="15.0"/>
      <point x="635.2036321961795" y="69.0" type="curve"/>
      <point x="574.1203045487339" y="193.0" type="line"/>
      <point x="524.8924804549089" y="160.0"/>
      <point x="471.4072643923589" y="138.0"/>
      <point x="417.4072643923589" y="138.0" type="curve" smooth="yes"/>
      <point x="320.4072643923589" y="138.0"/>
      <point x="259.6108965885384" y="207.0"/>
      <point x="294.01816098089733" y="345.0" type="curve" smooth="yes"/>
      <point x="328.4254253732563" y="483.0"/>
      <point x="423.3797295665926" y="551.0"/>
      <point x="519.3797295665926" y="551.0" type="curve" smooth="yes"/>
      <point x="574.3797295665926" y="551.0"/>
      <point x="616.6424975125722" y="532.0"/>
      <point x="651.6613134329631" y="504.0" type="curve"/>
      <point x="770.5752977968903" y="632.0" type="line"/>
      <point x="712.0443859276766" y="678.0"/>
      <point x="649.0282579959129" y="702.0"/>
      <point x="562.0282579959129" y="702.0" type="curve" smooth="yes"/>
      <point x="379.0282579959129" y="702.0"/>
      <point x="186.61830561492664" y="568.0"/>
    </contour>
    <contour>
      <point x="549.0363219617947" y="690.0" type="move" name="top"/>
    </contour>
    <contour>
      <point x="377.0" y="0.0" type="move" name="bottom"/>
    </contour>
  </outline>
</glyph>
<glyph name="F" format="1">
  <advance width="595"/>
  <unicode hex="0046"/>
  <outline>
    <contour>
      <point x="85.0" y="0.0" type="line"/>
      <point x="245.0" y="0.0" type="line"/>
      <point x="417.03632196179467" y="690.0" type="line"/>
      <point x="257.03632196179467" y="690.0" type="line"/>
    </contour>
    <contour>
      <point x="220.58401670226564" y="247.0" type="line"/>
      <point x="576.5840167022657" y="247.0" type="line"/>
      <point x="611.489937100311" y="387.0" type="line"/>
      <point x="255.48993710031095" y="387.0" type="line"/>
    </contour>
    <contour>
      <point x="296.1304015637494" y="550.0" type="line"/>
      <point x="692.1304015637494" y="550.0" type="line"/>
      <point x="727.0363219617947" y="690.0" type="line"/>
      <point x="331.03632196179467" y="690.0" type="line"/>
    </contour>
  </outline>
</glyph>
<glyph name="K" format="1">
  <advance width="675"/>
  <unicode hex="004B"/>
  <outline>
    <contour>
      <point x="85.0" y="0.0" type="line"/>
      <point x="245.0" y="0.0" type="line"/>
      <point x="417.03632196179467" y="690.0" type="line"/>
      <point x="257.03632196179467" y="690.0" type="line"/>
    </contour>
    <contour>
      <point x="220.91398436392714" y="128.0" type="line"/>
      <point x="834.0363219617947" y="690.0" type="line"/>
      <point x="635.0363219617947" y="690.0" type="line"/>
      <point x="271.5275689410928" y="331.0" type="line"/>
    </contour>
    <contour>
      <point x="367.8037768302088" y="292.0" type="line"/>
      <point x="481.0" y="0.0" type="line"/>
      <point x="675.0" y="0.0" type="line"/>
      <point x="499.72582516001773" y="408.0" type="line"/>
    </contour>
  </outline>
</glyph>
<glyph name="R" format="1">
  <advance width="659"/>
  <unicode hex="0052"/>
  <outline>
    <contour>
      <point x="85.0" y="0.0" type="line"/>
      <point x="245.0" y="0.0" type="line"/>
      <point x="417.03632196179467" y="690.0" type="line"/>
      <point x="257.03632196179467" y="690.0" type="line"/>
    </contour>
    <contour>
      <point x="218.83872068236337" y="240.0" type="line"/>
      <point x="406.8387206823634" y="240.0" type="line" smooth="yes"/>
      <point x="551.8387206823634" y="240.0"/>
      <point x="684.2836169155041" y="322.0"/>
      <point x="718.6908813078632" y="460.0" type="curve" smooth="yes"/>
      <point x="754.5941137172812" y="604.0"/>
      <point x="664.0363219617947" y="690.0"/>
      <point x="519.0363219617947" y="690.0" type="curve" smooth="yes"/>
      <point x="331.03632196179467" y="690.0" type="line"/>
      <point x="296.1304015637494" y="550.0" type="line"/>
      <point x="469.1304015637494" y="550.0" type="line" smooth="yes"/>
      <point x="534.1304015637494" y="550.0"/>
      <point x="570.8998894812971" y="521.0"/>
      <point x="555.6908813078632" y="460.0" type="curve" smooth="yes"/>
      <point x="540.4818731344291" y="399.0"/>
      <point x="489.25136105197686" y="370.0"/>
      <point x="424.25136105197686" y="370.0" type="curve" smooth="yes"/>
      <point x="251.25136105197686" y="370.0" type="line"/>
    </contour>
    <contour>
      <point x="368.3051208245224" y="290.0" type="line"/>
      <point x="447.0" y="0.0" type="line"/>
      <point x="624.0" y="0.0" type="line"/>
      <point x="527.3051208245224" y="290.0" type="line"/>
    </contour>
    <contour>
      <point x="494.03632196179467" y="690.0" type="move" name="top"/>
    </contour>
  </outline>
</glyph>
<glyph name="a" format="1">
  <advance width="557"/>
  <unicode hex="0061"/>
  <outline>
    <contour>
      <point x="68.40726439235894" y="138.0" type="curve" smooth="yes"/>
      <point x="45.967744136472675" y="48.0"/>
      <point x="100.00806396588183" y="-12.0"/>
      <point x="186.00806396588183" y="-12.0" type="curve" smooth="yes"/>
      <point x="256.00806396588183" y="-12.0"/>
      <point x="326.2332000710795" y="25.0"/>
      <point x="371.4475842217681" y="78.0" type="curve"/>
      <point x="392.64046446343843" y="163.0" type="line"/>
      <point x="347.16062437814304" y="133.0"/>
      <point x="298.4233923241226" y="114.0"/>
      <point x="256.4233923241226" y="114.0" type="curve" smooth="yes"/>
      <point x="226.4233923241226" y="114.0"/>
      <point x="211.91129637529986" y="132.0"/>
      <point x="218.39382444922256" y="158.0" type="curve" smooth="yes"/>
      <point x="224.87635252314524" y="184.0"/>
      <point x="253.35888059706795" y="210.0"/>
      <point x="345.10148862834296" y="221.0" type="curve" smooth="yes"/>
      <point x="429.59476865677476" y="231.0" type="line"/>
      <point x="443.28899289275876" y="314.0" type="line"/>
      <point x="350.7903368870724" y="312.0" type="line" smooth="yes"/>
      <point x="182.79302487569964" y="308.0"/>
      <point x="92.59208066814747" y="235.0"/>
    </contour>
    <contour>
      <point x="174.9187054016881" y="493.0" type="curve"/>
      <point x="185.75001705766323" y="372.0" type="line"/>
      <point x="229.48724911168364" y="391.0"/>
      <point x="281.9778411514882" y="405.0"/>
      <point x="336.9778411514882" y="405.0" type="curve" smooth="yes"/>
      <point x="405.9778411514882" y="405.0"/>
      <point x="430.9966570718791" y="377.0"/>
      <point x="416.2863049041315" y="318.0" type="curve" smooth="yes"/>
      <point x="369.91129637529986" y="132.0" type="line"/>
      <point x="361.68616027010216" y="95.0" type="line"/>
      <point x="356.0" y="0.0" type="line"/>
      <point x="502.0" y="0.0" type="line"/>
      <point x="506.21707213931586" y="49.0" type="line" smooth="yes"/>
      <point x="508.4475842217681" y="78.0"/>
      <point x="511.18481627578853" y="97.0"/>
      <point x="518.1660003553976" y="125.0" type="curve"/>
      <point x="568.2809289268769" y="326.0" type="line" smooth="yes"/>
      <point x="602.6881933192359" y="464.0"/>
      <point x="527.8891375267881" y="537.0"/>
      <point x="392.88913752678803" y="537.0" type="curve" smooth="yes"/>
      <point x="311.88913752678803" y="537.0"/>
      <point x="231.65324946708125" y="516.0"/>
    </contour>
    <contour>
      <point x="394.89720149266986" y="525.0" type="move" name="top"/>
    </contour>
    <contour>
      <point x="264.0" y="0.0" type="move" name="bottom"/>
    </contour>
  </outline>
</glyph>
<glyph name="c" format="1">
  <advance width="497"/>
  <unicode hex="0063"/>
  <outline>
    <contour>
      <point x="100.83065671648154" y="252.0" type="curve" smooth="yes"/>
      <point x="60.68884825872944" y="91.0"/>
      <point x="139.00806396588183" y="-12.0"/>
      <point x="296.00806396588183" y="-12.0" type="curve" smooth="yes"/>
      <point x="367.00806396588183" y="-12.0"/>
      <point x="429.4959680170591" y="6.0"/>
      <point x="479.47984008529545" y="30.0" type="curve"/>
      <point x="455.14987242363395" y="149.0" type="line"/>
      <point x="425.91129637529986" y="132.0"/>
      <point x="384.9193603411817" y="120.0"/>
      <point x="350.9193603411817" y="120.0" type="curve" smooth="yes"/>
      <point x="274.9193603411817" y="120.0"/>
      <point x="231.63777647481118" y="167.0"/>
      <point x="254.07729673069744" y="257.0" type="curve" smooth="yes"/>
      <point x="279.75808102354506" y="360.0"/>
      <point x="346.47649715717455" y="407.0"/>
      <point x="416.47649715717455" y="407.0" type="curve" smooth="yes"/>
      <point x="453.47649715717455" y="407.0"/>
      <point x="487.20796537837555" y="395.0"/>
      <point x="507.7473290690359" y="376.0" type="curve"/>
      <point x="591.4173614073744" y="495.0" type="line"/>
      <point x="552.9867597914002" y="519.0"/>
      <point x="505.88913752678803" y="537.0"/>
      <point x="444.88913752678803" y="537.0" type="curve" smooth="yes"/>
      <point x="284.88913752678803" y="537.0"/>
      <point x="144.213729211195" y="426.0"/>
    </contour>
    <contour>
      <point x="431.89720149266986" y="525.0" type="move" name="top"/>
    </contour>
    <contour>
      <point x="289.0" y="0.0" type="move" name="bottom"/>
    </contour>
  </outline>
</glyph>
<glyph name="d" format="1">
  <advance width="610"/>
  <unicode hex="0064"/>
  <outline>
    <contour>
      <point x="103.82259275059971" y="264.0" type="curve" smooth="yes"/>
      <point x="61.686160270102164" y="95.0"/>
      <point x="126.00806396588183" y="-12.0"/>
      <point x="232.00806396588183" y="-12.0" type="curve" smooth="yes"/>
      <point x="302.00806396588183" y="-12.0"/>
      <point x="366.7318560767659" y="27.0"/>
      <point x="420.694224235984" y="83.0" type="curve"/>
      <point x="445.3776965174589" y="182.0" type="line"/>
      <point x="405.1525604122612" y="145.0"/>
      <point x="355.91667235255443" y="124.0"/>
      <point x="315.91667235255443" y="124.0" type="curve" smooth="yes"/>
      <point x="257.91667235255443" y="124.0"/>
      <point x="230.88441648902707" y="172.0"/>
      <point x="255.81721677334514" y="272.0" type="curve" smooth="yes"/>
      <point x="279.2540490406042" y="366.0"/>
      <point x="339.4684331912927" y="419.0"/>
      <point x="403.4684331912927" y="419.0" type="curve" smooth="yes"/>
      <point x="456.4684331912927" y="419.0"/>
      <point x="479.99396908325184" y="381.0"/>
      <point x="459.29974484726785" y="298.0" type="curve"/>
      <point x="512.5463848614837" y="303.0" type="line"/>
      <point x="547.9509612652154" y="445.0"/>
      <point x="496.88913752678803" y="537.0"/>
      <point x="392.88913752678803" y="537.0" type="curve" smooth="yes"/>
      <point x="266.88913752678803" y="537.0"/>
      <point x="147.95364925384268" y="441.0"/>
    </contour>
    <contour>
      <point x="404.0" y="0.0" type="line"/>
      <point x="550.0" y="0.0" type="line"/>
      <point x="554.2170721393159" y="49.0" type="line" smooth="yes"/>
      <point x="556.4475842217681" y="78.0"/>
      <point x="559.1848162757885" y="97.0"/>
      <point x="566.1660003553976" y="125.0" type="curve" smooth="yes"/>
      <point x="718.2560820897378" y="735.0" type="line"/>
      <point x="563.2695220328742" y="715.0" type="line"/>
      <point x="417.91129637529986" y="132.0" type="line"/>
      <point x="409.68616027010216" y="95.0" type="line"/>
    </contour>
  </outline>
</glyph>
<glyph name="f" format="1">
  <advance width="391"/>
  <unicode hex="0066"/>
  <outline>
    <contour>
      <point x="117.22448116570409" y="410.0" type="line"/>
      <point x="493.2244811657041" y="410.0" type="line"/>
      <point x="521.8972014926699" y="525.0" type="line"/>
      <point x="145.89720149266986" y="525.0" type="line"/>
    </contour>
    <contour>
      <point x="105.0" y="0.0" type="line"/>
      <point x="255.0" y="0.0" type="line"/>
      <point x="385.89720149266986" y="525.0" type="line" smooth="yes"/>
      <point x="399.859569651888" y="581.0"/>
      <point x="428.09008173434023" y="610.0"/>
      <point x="478.09008173434023" y="610.0" type="curve"/>
      <point x="498.09008173434023" y="610.0"/>
      <point x="520.0927697229675" y="606.0"/>
      <point x="539.5968017059084" y="600.0" type="curve"/>
      <point x="583.7708660271878" y="713.0" type="line"/>
      <point x="553.762802061306" y="725.0"/>
      <point x="512.5080980812083" y="732.0"/>
      <point x="480.5080980812083" y="732.0" type="curve"/>
      <point x="359.5080980812083" y="732.0"/>
      <point x="267.81118585659704" y="653.0"/>
      <point x="235.39854548698352" y="523.0" type="curve" smooth="yes"/>
    </contour>
  </outline>
</glyph>
<glyph name="i" format="1">
  <advance width="300"/>
  <unicode hex="0069"/>
  <outline>
    <contour>
      <point x="226.54572992199016" y="676.0" type="curve" smooth="yes"/>
      <point x="214.0793297798311" y="626.0"/>
      <point x="241.8568816632607" y="585.0"/>
      <point x="295.8568816632607" y="585.0" type="curve" smooth="yes"/>
      <point x="349.8568816632607" y="585.0"/>
      <point x="398.07932977983114" y="626.0"/>
      <point x="410.5457299219902" y="676.0" type="curve" smooth="yes"/>
      <point x="423.01213006414923" y="726.0"/>
      <point x="395.2345781807196" y="767.0"/>
      <point x="341.2345781807196" y="767.0" type="curve" smooth="yes"/>
      <point x="287.2345781807196" y="767.0"/>
      <point x="239.0121300641492" y="726.0"/>
    </contour>
    <contour>
      <point x="75.0" y="0.0" type="line"/>
      <point x="225.0" y="0.0" type="line"/>
      <point x="355.89720149266986" y="525.0" type="line"/>
      <point x="205.89720149266986" y="525.0" type="line"/>
    </contour>
    <contour>
      <point x="150.0" y="0.0" type="move" name="bottom"/>
    </contour>
  </outline>
</glyph>
<glyph name="k" format="1">
  <advance width="575"/>
  <unicode hex="006B"/>
  <outline>
    <contour>
      <point x="75.0" y="0.0" type="line"/>
      <point x="225.0" y="0.0" type="line"/>
      <point x="408.2560820897378" y="735.0" type="line"/>
      <point x="253.26952203287422" y="715.0" type="line"/>
    </contour>
    <contour>
      <point x="194.18212828716125" y="101.0" type="line"/>
      <point x="692.8972014926699" y="525.0" type="line"/>
      <point x="506.89720149266986" y="525.0" type="line"/>
      <point x="237.06654477618832" y="273.0" type="line"/>
    </contour>
    <contour>
      <point x="310.06923276481564" y="269.0" type="line"/>
      <point x="404.0" y="0.0" type="line"/>
      <point x="575.0" y="0.0" type="line"/>
      <point x="428.00740902638825" y="361.0" type="line"/>
    </contour>
  </outline>
</glyph>
<glyph name="r" format="1">
  <advance width="409"/>
  <unicode hex="0072"/>
  <outline>
    <contour>
      <point x="190.89720149266986" y="525.0" type="line"/>
      <point x="186.680129353354" y="476.0" type="line" smooth="yes"/>
      <point x="184.4496172709018" y="447.0"/>
      <point x="181.71238521688133" y="428.0"/>
      <point x="174.73120113727228" y="400.0" type="curve" smooth="yes"/>
      <point x="75.0" y="0.0" type="line"/>
      <point x="225.0" y="0.0" type="line"/>
      <point x="319.2459850747223" y="378.0" type="line"/>
      <point x="329.9644012083518" y="425.0" type="line"/>
      <point x="336.89720149266986" y="525.0" type="line"/>
    </contour>
    <contour>
      <point x="291.77958493256324" y="328.0" type="line"/>
      <point x="355.2486730633496" y="374.0"/>
      <point x="404.9885931059973" y="389.0"/>
      <point x="483.9885931059973" y="389.0" type="curve"/>
      <point x="520.8891375267881" y="537.0" type="line"/>
      <point x="448.88913752678803" y="537.0"/>
      <point x="374.1680334045313" y="494.0"/>
      <point x="315.2164171998223" y="422.0" type="curve"/>
    </contour>
    <contour>
      <point x="385.89720149266986" y="525.0" type="move" name="top"/>
    </contour>
  </outline>
</glyph>
<glyph name="v" format="1">
  <advance width="530"/>
  <unicode hex="0076"/>
  <outline>
    <contour>
      <point x="130.89720149266986" y="525.0" type="line"/>
      <point x="204.0" y="0.0" type="line"/>
      <point x="297.0" y="0.0" type="line"/>
      <point x="323.4260803127499" y="110.0" type="line"/>
      <point x="294.89720149266986" y="525.0" type="line"/>
    </contour>
    <contour>
      <point x="267.4260803127499" y="110.0" type="line"/>
      <point x="241.0" y="0.0" type="line"/>
      <point x="326.0" y="0.0" type="line"/>
      <point x="660.8972014926699" y="525.0" type="line"/>
      <point x="500.89720149266986" y="525.0" type="line"/>
    </contour>
  </outline>
</glyph>
<glyph name="w" format="1">
  <advance width="820"/>
  <unicode hex="0077"/>
  <outline>
    <contour>
      <point x="150.89720149266986" y="525.0" type="line"/>
      <point x="194.0" y="0.0" type="line"/>
      <point x="287.0" y="0.0" type="line"/>
      <point x="312.67809630422033" y="107.0" type="line"/>
      <point x="310.89720149266986" y="525.0" type="line"/>
    </contour>
    <contour>
      <point x="256.67809630422033" y="107.0" type="line"/>
      <point x="231.0" y="0.0" type="line"/>
      <point x="316.0" y="0.0" type="line"/>
      <point x="526.2567370292314" y="362.0" type="line"/>
      <point x="566.8972014926699" y="525.0" type="line"/>
      <point x="480.89720149266986" y="525.0" type="line"/>
    </contour>
    <contour>
      <point x="474.25673702923143" y="362.0" type="line"/>
      <point x="504.0" y="0.0" type="line"/>
      <point x="597.0" y="0.0" type="line"/>
      <point x="622.6780963042204" y="107.0" type="line"/>
      <point x="604.8972014926699" y="525.0" type="line"/>
      <point x="514.8972014926699" y="525.0" type="line"/>
    </contour>
    <contour>
      <point x="566.6780963042204" y="107.0" type="line"/>
      <point x="541.0" y="0.0" type="line"/>
      <point x="626.0" y="0.0" type="line"/>
      <point x="930.8972014926699" y="525.0" type="line"/>
      <point x="774.8972014926699" y="525.0" type="line"/>
    </contour>
    <contour>
      <point x="540.8972014926699" y="525.0" type="move" name="top"/>
    </contour>
  </outline>
</glyph>
<glyph name="z" format="1">
  <advance width="501"/>
  <unicode hex="007A"/>
  <outline>
    <contour>
      <point x="56.19288024167036" y="85.0" type="line"/>
      <point x="147.0" y="0.0" type="line"/>
      <point x="565.7043212509996" y="440.0" type="line"/>
      <point x="474.89720149266986" y="525.0" type="line"/>
    </contour>
    <contour>
      <point x="35.0" y="0.0" type="line"/>
      <point x="466.0" y="0.0" type="line"/>
      <point x="494.67272032696576" y="115.0" type="line"/>
      <point x="122.67272032696579" y="115.0" type="line"/>
      <point x="56.19288024167036" y="85.0" type="line"/>
    </contour>
    <contour>
      <point x="147.2244811657041" y="410.0" type="line"/>
      <point x="500.2244811657041" y="410.0" type="line"/>
      <point x="565.7043212509996" y="440.0" type="line"/>
      <point x="586.8972014926699" y="525.0" type="line"/>
      <point x="175.89720149266986" y="525.0" type="line"/>
    </contour>
    <contour>
      <point x="380.89720149266986" y="525.0" type="move" name="top"/>
    </contour>
  </outline>
</glyph>
